<?xml version="1.0" encoding="UTF-8" standalone="no"?>
<svg width="167px" height="11px" viewBox="0 0 167 11" version="1.1" xmlns="http://www.w3.org/2000/svg" xmlns:xlink="http://www.w3.org/1999/xlink">
    <!-- Generator: Sketch 3.7.2 (28276) - http://www.bohemiancoding.com/sketch -->
    <title>Slice 1</title>
    <desc>Created with Sketch.</desc>
    <defs></defs>
    <g id="Page-1" stroke="none" stroke-width="1" fill="none" fill-rule="evenodd">
        <path d="M2,1.5 C7.086,1.5 7.086,9.5 12.172,9.5 C17.259,9.5 17.259,1.5 22.346,1.5 C27.434,1.5 27.434,9.5 32.522,9.5 C37.61,9.5 37.61,1.5 42.697,1.5 C47.784,1.5 47.784,9.5 52.872,9.5 C57.96,9.5 57.96,1.5 63.048,1.5 C68.137,1.5 68.137,9.5 73.225,9.5 C78.313,9.5 78.313,1.5 83.401,1.5 C88.49,1.5 88.49,9.5 93.578,9.5 C98.665,9.5 98.665,1.5 103.752,1.5 C108.839,1.5 108.839,9.5 113.927,9.5 C119.016,9.5 119.016,1.5 124.105,1.5 C129.195,1.5 129.195,9.5 134.285,9.5 C139.374,9.5 139.374,1.5 144.462,1.5 C149.554,1.5 149.554,9.5 154.648,9.5 C159.74,9.5 159.74,1.5 164.832,1.5" id="Shape" stroke="#FFFFFF" stroke-width="3"></path>
    </g>
</svg>